<?xml version="1.0" standalone="no"?>
<!DOCTYPE svg PUBLIC "-//W3C//DTD SVG 20010904//EN"
 "http://www.w3.org/TR/2001/REC-SVG-20010904/DTD/svg10.dtd">
<svg version="1.0" xmlns="http://www.w3.org/2000/svg"
 width="128.000000pt" height="71.000000pt" viewBox="0 0 128.000000 71.000000"
 preserveAspectRatio="xMidYMid meet">
<metadata>
Created by potrace 1.15, written by Peter Selinger 2001-2017
</metadata>
<g transform="translate(0.000000,71.000000) scale(0.100000,-0.100000)"
fill="#000000" stroke="none">
<path d="M230 690 c-100 -18 -153 -59 -196 -152 -27 -59 -29 -71 -29 -183 0
-111 3 -125 29 -183 16 -34 45 -76 64 -94 62 -54 90 -61 290 -66 l182 -5 0
117 0 116 -70 0 -70 0 0 -55 0 -55 -85 0 c-154 0 -196 40 -203 193 -6 116 9
185 49 223 29 28 35 29 135 32 l104 4 0 -51 0 -51 70 0 70 0 0 110 0 110 -147
-1 c-82 -1 -168 -5 -193 -9z"/>
<path d="M650 591 l0 -111 70 0 70 0 0 50 0 50 85 0 c154 0 196 -40 203 -193
6 -116 -9 -185 -49 -223 -29 -28 -35 -29 -135 -32 l-104 -4 0 56 0 56 -70 0
-70 0 0 -116 0 -116 178 5 c102 3 193 10 215 18 59 20 110 71 143 141 27 59
29 71 29 183 0 111 -3 125 -29 183 -16 34 -45 76 -64 94 -62 54 -90 61 -289
66 l-183 5 0 -112z"/>
<path d="M240 355 l0 -75 375 0 375 0 0 75 0 75 -375 0 -375 0 0 -75z"/>
</g>
</svg>
